<?xml version="1.0" encoding="utf-8"?>
<!-- Generator: Adobe Illustrator 26.0.0, SVG Export Plug-In . SVG Version: 6.00 Build 0)  -->
<svg version="1.1" xmlns="http://www.w3.org/2000/svg" xmlns:xlink="http://www.w3.org/1999/xlink" x="0px" y="0px"
	 viewBox="0 0 1920 1080" style="enable-background:new 0 0 1920 1080;" xml:space="preserve">
<style type="text/css">
	.st0{display:none;fill:#1D1D1B;}
	.st1{fill:#FFFFFF;}
	.st2{fill:none;stroke:#000000;stroke-width:3;stroke-miterlimit:10;}
	.st3{fill:#1D1D1B;}
	.st4{fill:none;stroke:#FFFFFF;stroke-width:3;stroke-miterlimit:10;}
	.st5{fill:#414143;}
</style>
<g id="Logotipo_oscuro">
	<rect y="0" class="st0" width="1920" height="1080"/>
	<g>
		<g>
			<path class="st1" d="M395.99,540V391.94h-57.62v-34.41h156.92v34.41h-57.62V540H395.99z"/>
			<path class="st1" d="M569.37,542.09c-15.78,0-29.63-3.13-41.54-9.38c-11.92-6.26-21.14-14.81-27.65-25.68
				c-6.52-10.86-9.78-23.24-9.78-37.14c0-14.08,3.22-26.54,9.65-37.41c6.43-10.86,15.22-19.38,26.37-25.54
				c11.15-6.17,23.75-9.25,37.81-9.25c13.54,0,25.76,2.91,36.66,8.73c10.89,5.82,19.51,14.17,25.85,25.02
				c6.34,10.86,9.52,23.85,9.52,38.97c0,1.56-0.09,3.35-0.26,5.34c-0.17,2-0.35,3.87-0.51,5.6H523.07v-23.72h91.32l-15.43,7.04
				c0-7.3-1.46-13.64-4.37-19.03c-2.92-5.38-6.95-9.6-12.09-12.64c-5.14-3.04-11.15-4.56-18.01-4.56c-6.86,0-12.91,1.52-18.13,4.56
				c-5.23,3.04-9.31,7.3-12.22,12.77c-2.92,5.47-4.37,11.95-4.37,19.42v6.26c0,7.65,1.67,14.38,5.02,20.2
				c3.34,5.82,8.06,10.25,14.15,13.29c6.08,3.04,13.25,4.56,21.48,4.56c7.37,0,13.85-1.13,19.42-3.39
				c5.57-2.26,10.67-5.65,15.3-10.17l21.35,23.46c-6.35,7.3-14.32,12.9-23.92,16.81C592.95,540.13,581.88,542.09,569.37,542.09z"/>
			<path class="st1" d="M663,540V399.76h38.33v39.62l-5.4-11.47c4.12-9.91,10.72-17.42,19.81-22.55c9.09-5.12,20.15-7.69,33.18-7.69
				v37.54c-1.72-0.17-3.26-0.3-4.63-0.39c-1.38-0.08-2.83-0.13-4.37-0.13c-10.98,0-19.85,3.17-26.62,9.51
				c-6.78,6.35-10.16,16.21-10.16,29.58V540H663z"/>
			<path class="st1" d="M772.84,540V399.76h38.33v39.62l-5.4-11.47c4.12-9.91,10.72-17.42,19.81-22.55
				c9.09-5.12,20.15-7.69,33.18-7.69v37.54c-1.72-0.17-3.26-0.3-4.63-0.39c-1.38-0.08-2.83-0.13-4.37-0.13
				c-10.98,0-19.85,3.17-26.62,9.51c-6.78,6.35-10.16,16.21-10.16,29.58V540H772.84z"/>
			<path class="st1" d="M916.39,542.09c-10.8,0-20.06-1.87-27.78-5.6c-7.72-3.73-13.63-8.82-17.75-15.25
				c-4.12-6.43-6.17-13.64-6.17-21.63c0-8.34,2.01-15.64,6.05-21.9c4.03-6.26,10.42-11.16,19.16-14.73
				c8.75-3.56,20.15-5.34,34.21-5.34h36.79v23.72h-32.41c-9.43,0-15.91,1.56-19.42,4.69c-3.52,3.13-5.27,7.04-5.27,11.73
				c0,5.21,2.01,9.34,6.04,12.38c4.03,3.04,9.56,4.56,16.59,4.56c6.69,0,12.69-1.6,18.01-4.82c5.31-3.21,9.17-7.95,11.58-14.21
				l6.17,18.77c-2.92,9.04-8.23,15.9-15.95,20.59C938.51,539.74,928.56,542.09,916.39,542.09z M958.57,540v-27.37l-2.57-6v-49.01
				c0-8.69-2.62-15.46-7.85-20.33c-5.23-4.86-13.25-7.3-24.05-7.3c-7.38,0-14.62,1.17-21.74,3.52c-7.12,2.35-13.16,5.52-18.13,9.51
				l-14.41-28.41c7.54-5.38,16.63-9.55,27.27-12.51c10.63-2.95,21.44-4.43,32.41-4.43c21.09,0,37.47,5.04,49.13,15.12
				c11.66,10.08,17.49,25.81,17.49,47.18V540H958.57z"/>
		</g>
		<g>
			<path class="st1" d="M922.28,736.47l-77.69-182.47h45.02l67.91,161.61h-26.5l68.94-161.61h41.42l-77.94,182.47H922.28z"/>
			<path class="st1" d="M1085.88,738.56c-10.8,0-20.07-1.87-27.78-5.6c-7.72-3.74-13.63-8.82-17.75-15.25
				c-4.12-6.43-6.17-13.64-6.17-21.64c0-8.34,2.01-15.64,6.04-21.9c4.03-6.26,10.42-11.16,19.16-14.73
				c8.75-3.56,20.15-5.34,34.21-5.34h36.79v23.72h-32.41c-9.43,0-15.91,1.56-19.42,4.69c-3.52,3.13-5.27,7.04-5.27,11.73
				c0,5.21,2.01,9.34,6.04,12.38c4.03,3.04,9.56,4.56,16.59,4.56c6.69,0,12.69-1.6,18.01-4.82c5.31-3.21,9.17-7.95,11.58-14.21
				l6.17,18.77c-2.92,9.04-8.23,15.9-15.95,20.59C1108,736.21,1098.05,738.56,1085.88,738.56z M1128.07,736.47V709.1l-2.57-6v-49
				c0-8.69-2.62-15.46-7.85-20.33c-5.23-4.86-13.25-7.3-24.05-7.3c-7.38,0-14.62,1.17-21.74,3.52c-7.12,2.35-13.16,5.52-18.14,9.51
				l-14.41-28.41c7.54-5.38,16.63-9.55,27.27-12.51c10.63-2.95,21.43-4.43,32.41-4.43c21.09,0,37.47,5.04,49.13,15.12
				c11.66,10.08,17.49,25.81,17.49,47.18v80.02H1128.07z"/>
			<path class="st1" d="M1201.89,736.47V543.06h40.13v193.41H1201.89z"/>
			<path class="st1" d="M1345.17,738.56c-14.75,0-27.83-3.13-39.23-9.38c-11.41-6.26-20.41-14.81-27.01-25.67
				c-6.6-10.86-9.9-23.24-9.9-37.15c0-14.08,3.3-26.54,9.9-37.41c6.6-10.86,15.6-19.38,27.01-25.55c11.4-6.17,24.48-9.25,39.23-9.25
				c14.57,0,27.61,3.09,39.1,9.25c11.49,6.17,20.49,14.64,27.01,25.42c6.52,10.78,9.78,23.29,9.78,37.54
				c0,13.91-3.26,26.29-9.78,37.15c-6.52,10.86-15.52,19.42-27.01,25.67C1372.78,735.43,1359.75,738.56,1345.17,738.56z
				 M1345.17,705.19c6.69,0,12.69-1.56,18.01-4.69c5.31-3.13,9.52-7.6,12.61-13.42c3.09-5.82,4.63-12.73,4.63-20.72
				c0-8.17-1.54-15.12-4.63-20.85c-3.09-5.73-7.29-10.17-12.61-13.29c-5.32-3.13-11.32-4.69-18.01-4.69
				c-6.69,0-12.69,1.56-18.01,4.69c-5.32,3.13-9.56,7.56-12.73,13.29c-3.18,5.74-4.76,12.69-4.76,20.85c0,8,1.58,14.9,4.76,20.72
				c3.17,5.82,7.41,10.3,12.73,13.42C1332.48,703.63,1338.48,705.19,1345.17,705.19z"/>
			<path class="st1" d="M1447.81,736.47V596.23h38.33v39.62l-5.4-11.47c4.12-9.91,10.72-17.42,19.81-22.55
				c9.09-5.12,20.15-7.69,33.18-7.69v37.54c-1.72-0.17-3.26-0.3-4.63-0.39c-1.37-0.09-2.83-0.13-4.37-0.13
				c-10.98,0-19.85,3.17-26.62,9.51c-6.78,6.35-10.16,16.21-10.16,29.59v66.21H1447.81z"/>
		</g>
	</g>
</g>
<g id="Logotipo_claro">
	<g>
		<g>
			<path d="M-1706.05,518.79V370.73h-57.62v-34.41h156.92v34.41h-57.62v148.06H-1706.05z"/>
			<path d="M-1532.67,520.87c-15.78,0-29.63-3.13-41.54-9.38c-11.92-6.26-21.14-14.81-27.65-25.67
				c-6.52-10.86-9.77-23.24-9.77-37.15c0-14.08,3.22-26.54,9.65-37.41c6.43-10.86,15.22-19.38,26.37-25.55
				c11.15-6.17,23.75-9.25,37.81-9.25c13.54,0,25.76,2.91,36.66,8.73c10.89,5.82,19.51,14.17,25.85,25.02
				c6.34,10.86,9.52,23.85,9.52,38.97c0,1.56-0.09,3.35-0.26,5.34c-0.17,2-0.35,3.87-0.51,5.61h-112.41v-23.72h91.32l-15.43,7.04
				c0-7.3-1.46-13.64-4.37-19.03c-2.92-5.38-6.95-9.6-12.09-12.64c-5.14-3.04-11.15-4.56-18.01-4.56c-6.86,0-12.91,1.52-18.13,4.56
				c-5.23,3.04-9.31,7.3-12.22,12.77c-2.92,5.47-4.37,11.95-4.37,19.42v6.26c0,7.65,1.67,14.38,5.02,20.2
				c3.34,5.82,8.06,10.25,14.15,13.29c6.08,3.04,13.25,4.56,21.48,4.56c7.37,0,13.85-1.13,19.42-3.39
				c5.57-2.26,10.68-5.65,15.31-10.17l21.35,23.46c-6.35,7.3-14.32,12.9-23.92,16.81C-1509.1,518.92-1520.16,520.87-1532.67,520.87z
				"/>
			<path d="M-1439.04,518.79V378.55h38.33v39.62l-5.4-11.47c4.12-9.91,10.72-17.42,19.81-22.55c9.09-5.12,20.15-7.69,33.18-7.69V414
				c-1.72-0.17-3.26-0.3-4.63-0.39c-1.38-0.09-2.83-0.13-4.37-0.13c-10.98,0-19.85,3.17-26.62,9.51
				c-6.78,6.35-10.16,16.21-10.16,29.58v66.21H-1439.04z"/>
			<path d="M-1329.2,518.79V378.55h38.33v39.62l-5.4-11.47c4.12-9.91,10.72-17.42,19.81-22.55c9.09-5.12,20.15-7.69,33.18-7.69V414
				c-1.72-0.17-3.26-0.3-4.63-0.39c-1.37-0.09-2.83-0.13-4.37-0.13c-10.98,0-19.85,3.17-26.62,9.51
				c-6.78,6.35-10.16,16.21-10.16,29.58v66.21H-1329.2z"/>
			<path d="M-1185.66,520.87c-10.8,0-20.06-1.87-27.78-5.6c-7.72-3.74-13.63-8.82-17.75-15.25c-4.12-6.43-6.17-13.64-6.17-21.63
				c0-8.34,2.01-15.64,6.05-21.9c4.03-6.26,10.42-11.16,19.16-14.73c8.75-3.56,20.15-5.34,34.21-5.34h36.78v23.72h-32.41
				c-9.43,0-15.91,1.56-19.42,4.69c-3.52,3.13-5.27,7.04-5.27,11.73c0,5.21,2.01,9.34,6.04,12.38c4.03,3.04,9.56,4.56,16.59,4.56
				c6.69,0,12.69-1.61,18.01-4.82c5.31-3.21,9.17-7.95,11.58-14.21l6.17,18.77c-2.92,9.04-8.23,15.9-15.95,20.59
				C-1163.53,518.53-1173.48,520.87-1185.66,520.87z M-1143.47,518.79v-27.37l-2.57-6v-49c0-8.69-2.62-15.46-7.85-20.33
				c-5.23-4.86-13.25-7.3-24.05-7.3c-7.38,0-14.62,1.17-21.74,3.52c-7.12,2.35-13.16,5.52-18.13,9.51l-14.41-28.41
				c7.54-5.38,16.63-9.55,27.27-12.51c10.63-2.95,21.44-4.43,32.41-4.43c21.09,0,37.47,5.04,49.13,15.12
				c11.66,10.08,17.49,25.81,17.49,47.18v80.02H-1143.47z"/>
		</g>
		<g>
			<path d="M-1179.77,715.26l-77.69-182.47h45.02l67.91,161.61h-26.5l68.94-161.61h41.42l-77.94,182.47H-1179.77z"/>
			<path d="M-1016.16,717.35c-10.8,0-20.06-1.87-27.78-5.6s-13.63-8.82-17.75-15.25c-4.12-6.43-6.17-13.64-6.17-21.63
				c0-8.34,2.01-15.64,6.05-21.9c4.03-6.26,10.42-11.16,19.16-14.73c8.75-3.56,20.15-5.34,34.21-5.34h36.79v23.72h-32.41
				c-9.43,0-15.91,1.56-19.42,4.69c-3.52,3.13-5.27,7.04-5.27,11.73c0,5.21,2.01,9.34,6.05,12.38c4.03,3.04,9.56,4.56,16.59,4.56
				c6.69,0,12.69-1.6,18.01-4.82c5.31-3.21,9.17-7.95,11.58-14.21l6.17,18.77c-2.92,9.04-8.23,15.9-15.95,20.59
				C-994.04,715-1003.99,717.35-1016.16,717.35z M-973.98,715.26v-27.37l-2.57-6v-49c0-8.69-2.62-15.46-7.85-20.33
				c-5.23-4.86-13.25-7.3-24.05-7.3c-7.38,0-14.62,1.17-21.74,3.52c-7.12,2.35-13.16,5.52-18.13,9.52l-14.41-28.41
				c7.54-5.38,16.63-9.55,27.27-12.51c10.63-2.95,21.44-4.43,32.41-4.43c21.09,0,37.47,5.04,49.13,15.12
				c11.66,10.08,17.49,25.81,17.49,47.18v80.02H-973.98z"/>
			<path d="M-900.15,715.26V521.85h40.13v193.41H-900.15z"/>
			<path d="M-756.87,717.35c-14.75,0-27.83-3.13-39.23-9.38c-11.41-6.26-20.41-14.81-27.01-25.67c-6.6-10.86-9.9-23.24-9.9-37.15
				c0-14.08,3.3-26.54,9.9-37.41c6.6-10.86,15.6-19.38,27.01-25.55c11.4-6.17,24.48-9.25,39.23-9.25c14.57,0,27.61,3.09,39.1,9.25
				c11.49,6.17,20.49,14.64,27.01,25.42c6.51,10.78,9.77,23.29,9.77,37.54c0,13.91-3.26,26.29-9.77,37.15
				c-6.52,10.86-15.52,19.42-27.01,25.67C-729.26,714.22-742.3,717.35-756.87,717.35z M-756.87,683.98c6.69,0,12.69-1.56,18.01-4.69
				c5.31-3.13,9.52-7.6,12.61-13.42c3.09-5.82,4.63-12.73,4.63-20.72c0-8.17-1.54-15.12-4.63-20.85
				c-3.09-5.73-7.29-10.17-12.61-13.29c-5.32-3.13-11.32-4.69-18.01-4.69s-12.69,1.56-18.01,4.69c-5.32,3.13-9.56,7.56-12.73,13.29
				c-3.18,5.74-4.76,12.69-4.76,20.85c0,8,1.58,14.9,4.76,20.72c3.17,5.82,7.42,10.3,12.73,13.42
				C-769.56,682.42-763.56,683.98-756.87,683.98z"/>
			<path d="M-654.23,715.26V575.02h38.33v39.62l-5.4-11.47c4.12-9.91,10.72-17.42,19.81-22.55c9.09-5.12,20.15-7.69,33.18-7.69
				v37.54c-1.72-0.17-3.26-0.3-4.63-0.39c-1.38-0.08-2.83-0.13-4.37-0.13c-10.98,0-19.85,3.17-26.62,9.51
				c-6.78,6.35-10.16,16.21-10.16,29.59v66.21H-654.23z"/>
		</g>
	</g>
</g>
<g id="Isotipo_fondo_claro">
	<g>
		<path class="st2" d="M1242.25-1110.76c-58.56-220.93-255.85-376.72-479.53-381.31c-210.8-4.32-404.86,126.48-482.76,326.79"/>
		<path class="st2" d="M279.75-796.33c74.05,202.39,267.87,337.49,482.97,336.8c213.7-0.69,405.68-135.27,479.47-336.26"/>
		<path class="st3" d="M523.85-1220.16c-14.3-9.03-5.88-21.08-2.59-30.87c3.61-10.76,14.67-3.6,22.25-5.26
			c12.1,1,24.29,0.42,35.12,8.26c5.46,3.95,12.56,1.46,19.01-0.43c21.46-6.3,22.64-5.48,26.76,15.55c0.38,1.91,1.89,3.42,3.08,4.98
			c-0.79-2.52-0.97,2.44,1.43,1.34c-7.53-14.55-2.81-23.43,11.8-27.45c-1.76-0.24,2.92,0.5,1.55,0.13
			c-9.94-2.67-23.35,0.72-24.97-15.25c-0.39-3.85,0.05-8,4.43-10.11c10.21-3.88,20.85-1.91,31.28-2.45
			c5.02,0.04,10.04,0.12,15.05,0.05c5.64-0.27,11.47,0.53,16.17-2.6c-11.74-3.59-22.4-8.91-28.92-20.3
			c1.82-15.55,7.29-25.04,25.41-17.1c11.12,4.87-2.44-9.48,8.46-10.61c33.94-3.51,66.78-16.29,101.8-11.77
			c12.03,1.55,25.21-2.21,35.17,8.15c0.1,11.37-12.5,10.77-16.86,17.95c-2.98,4.39-9.61,0.19-12.33,5.3
			c-9.48,8.14-20.66,13.6-31.07,20.25c-19.19,6.72-19,28.54-31.52,40.45c-15.44,3.71-31.1,1.55-46.67,1.65
			c-1.44,0.01-2.45-2.07-4.2-1.03c11.91,11.38-17.06,33.79,8.43,38.51c-5.69-4.71-12.45-11.84-6.57-24.18
			c5.43-11.41,14.48-15.52,25.74-12.91c7.95,1.85,15.73-3.1,23.26,0.94c25.4,12.23,55.54,16.91,71.08,44.83
			c1.17,2.1,3.05,4.45,5.16,5.3c18.71,7.55,24.65,16.19,3.49,28.7c-7.31,4.32,1.49,10.64-1.01,15.81
			c-1.91,9.17-6.17,14.51-16.44,10.06c-7.26-3.14-16.03-3.63-22.02-8.41c-9.07-7.24-17.9-6.74-27.66-3.4
			c-11.37-14.17-10.58-16.74,10.75-29.27c-7.96,0.37-10.32-11.05-17.47-5.37c-5.81,4.61-7.42,12.24-3.51,19.78
			c4.33,8.34,1.47,15.24-4.59,21.33c-6.65,6.69-13.84,6.22-21.51,1.68c-5.21-3.08-10.92-4.9-16.99-2.92
			c-7.22,2.37-13.34,6.57-14.47,14.57c-1.12,7.95,4.73,11.68,11.14,14.26c13.27,5.34,26.33,11.21,38.57,15.71
			c12.92-13.97,7.77-33.32,16.78-48.13c13.02-7.39,24.04-0.22,35.3,4.93c6.36,2.91,13.6,3.32,18.55,10.09
			c2.65,3.63,8.11-9.06,13.57-1.03c10.78,16.44,20.48,33.06,36.46,46.2c10.77,8.85,10.47,27.03,20.18,39.22
			c4.97,6.24-0.52,12.08-9.85,10.02c-8.89-1.97-17.88-3.42-26.83-5.1c-0.36-0.51-0.62-1.15-1.09-1.51c-3.41-2.61,1.17-7.8-3.21-9.87
			c-0.6-0.28-2.36,1.24-2.68,2.32c-1.89,6.46,5.53,5.24,7.35,8.7c2.08,12.19-15.37,27.29-29.76,23.18
			c-10.29-2.94-12.2,2.93-18.95,6.82c-22.17,12.76-21.32,41.88-43.65,53.6c-12.56,6.59-9.95,19.64,1.47,23.72
			c12.87,4.6,16.4,13.11,19.49,23.8c-7.07,1.64-13.63-2.46-20.62-1.8c-3.7-0.78-5.96-3.9-9.09-5.61
			c-5.6-3.58-11.26-7.61-12.92-14.22c-2.38-9.46-14.47-12.25-16.19-10.05c-12,15.29-39.44-10.39-45.58,17.99
			c-1.7,7.85-4.2,15.32-0.37,22.93c6.41,12.73,16.14,14.06,24.41,3.42c6.16-7.94,13.48-6.68,18.97-4.26
			c6.79,2.99,3.23,10.34,0.3,15.34c-4.95,8.45-2.13,11.78,6.8,12.66c8.93,0.88,12,6.06,11.06,14.96
			c-1.86,17.5,7.97,21.88,23.2,19.43c1.14,1.71,1.13,3.43-0.01,5.14c-16.4,6.88-27.56-0.04-37.86-12.79
			c-12.01-14.86-29.73-19.21-47.59-23.69c-19.69-4.94-42.19-6.92-48.01-33.18c-1.04-4.71-3.1-10.33-12.77-4.12
			c-9.04,5.81-13.46-7.87-18.51-14.72c-14.33-19.42-29.12-38.45-45.65-56.12c-10.55-11.28-15.15-25.85-10.73-40.1
			c7.54-24.33-18.3-32.86-21.71-51.51c-29.12,4.54-24.04-28.64-43.16-39.03c-29.74-16.15-41.12-19.9-64.55,5.43
			c-0.87,0.94-2.08,2.22-3.15,2.24c-24.82,0.44-42.59,19.34-65.45,24.89c-3.4,0.83-7.16,1.66-8.7-1.67
			c-2.13-4.57,1.8-7.39,5.26-9.25c11.42-6.13,23-11.93,36.25-18.74c-8.79-5.29-16.41-9.53-23.64-14.35
			c-4.98-3.32-11.57-8.96-9.79-13.78c4.71-12.72,4.63-22.2-8.13-29.79c-2.73-1.62-1.54-6.2,2.44-7.66
			c10.13-3.71,13.8-6.61,3.4-16.43c-5.38-5.07,4.86-10.79,9.87-13.73c24.31-14.24,52.34-19.17,77.82-11.31
			c39.07,12.05,77.47,7.59,116.4,5.77c5.22,3.01,10.7,2.21,16.29,0.73C534.28-1215.44,527.96-1213.48,523.85-1220.16z"/>
		<path class="st3" d="M742-843.43c0-1.71,0.01-3.42,0.01-5.14c9.2-6.89,17.77-14.65,29.02-18.51c6.68-2.3,13.63-3.3,18.93,1.02
			c7.64,6.22,15.02,7.29,23.79,3.64c1.59-0.66,4.5-0.62,5.62,0.4c17.56,15.98,46.24,18.48,58.11,37.86
			c10.76,17.56,25.53,21.06,40.79,26.09c8.76,2.89,16.65,6.18,24.62,10.78c14.05,8.1,16.66,17.97,7.17,30.53
			c-7.96,10.54-12.92,21.4-15.43,34.88c-2.84,15.29-6.92,32.51-29.19,33.76c-7.42,0.42-12.62,7.42-15.41,16.06
			c-5.69,17.63-20.02,29.45-31.1,43.62c-15.44,19.75-44.06,26.49-50.97,53.95c-3.36,13.35-8.92,26.21-12.94,39.24
			c-4.05,13.16,9.43,16.32,22.56,18.52c-11.15,10.88-21.73,14.91-34.52,10.18c-13.56-5.02-24.34-12.69-25.95-28.96
			c-3.06-30.92,4.15-60.84,10.83-90.29c5.98-26.39,10.52-52.61,11.89-79.52c0.47-9.23-4.08-13.7-11.93-17.96
			c-20.21-10.99-40.85-54.43-37.72-76.71c0.94-6.71,2.62-13.9,8.27-17.28C751.33-825,748.54-833.69,742-843.43z"/>
		<path class="st3" d="M805.29-1320.84c2.89,0.17,5.78,0.33,8.67,0.5c7-8.84,18.49-10.09,27.18-16.09
			c14.46-3.8,28.9-6.78,44.09-4.28c4.89,0.8,11.72,1.02,15.05-1.7c27.36-22.35,61.06-15.64,91.79-18.58
			c23.27-2.23,50.55-2.65,66.2,23.61c3.84,6.45,10.84,3.06,16.33,0.98c11.56-4.37,21.87-2.84,30.95,5.05
			c1.14,4.19-1.65,5.81-3.99,7.27c-29.2,18.17-34.38,33.19-22.97,66.67c0.66,1.94,1.69,5.32,0.88,5.98
			c-27.25,22.1-23.92,70.68-74.66,75.75c-22.43,2.24-48.64,24.32-60.53,51.33c-8.09,18.38-26.44,22.44-39.56,5.95
			c-15.14-19.02-30.42-37.53-30.46-65.93c-0.02-19.75-10.83-40.03-19.17-59.04c-5.81-13.24-17.15-21.79-33.6-18.3
			c-23.09,4.9-38.54-5.06-48.72-25.17c5.69-21.43,26.43-14.01,39.17-21.12c3.17,1.97,2.89-0.92,2.12-0.9
			C805.9-1308.63,801.08-1311.65,805.29-1320.84z"/>
	</g>
</g>
<g id="Isotipo_fondo_oscuro">
	<rect x="-1452.65" y="-1509.82" class="st3" width="1022.12" height="1067.94"/>
	<g>
		<path class="st4" d="M-467.03-1102.03c-58.56-220.93-255.85-376.72-479.53-381.31c-210.8-4.32-404.86,126.48-482.76,326.79"/>
		<path class="st4" d="M-1429.53-787.61c74.05,202.39,267.87,337.49,482.97,336.8c213.7-0.69,405.68-135.27,479.47-336.26"/>
		<path class="st1" d="M-1185.43-1211.43c-14.3-9.03-5.88-21.08-2.59-30.87c3.61-10.76,14.67-3.6,22.25-5.26
			c12.1,1,24.29,0.42,35.12,8.26c5.46,3.95,12.56,1.46,19.01-0.43c21.46-6.3,22.64-5.48,26.76,15.55c0.38,1.91,1.89,3.42,3.08,4.98
			c-0.79-2.52-0.97,2.44,1.43,1.34c-7.53-14.55-2.81-23.43,11.8-27.45c-1.76-0.24,2.92,0.5,1.55,0.13
			c-9.94-2.67-23.35,0.72-24.97-15.25c-0.39-3.85,0.05-8,4.43-10.11c10.21-3.88,20.85-1.91,31.28-2.45
			c5.02,0.04,10.04,0.12,15.05,0.05c5.64-0.27,11.47,0.53,16.17-2.6c-11.74-3.59-22.4-8.91-28.92-20.3
			c1.82-15.55,7.29-25.04,25.41-17.1c11.12,4.87-2.44-9.48,8.46-10.61c33.94-3.51,66.78-16.29,101.8-11.77
			c12.03,1.55,25.21-2.21,35.17,8.15c0.1,11.37-12.5,10.77-16.86,17.95c-2.98,4.39-9.61,0.19-12.33,5.3
			c-9.48,8.14-20.66,13.6-31.07,20.25c-19.19,6.72-19,28.54-31.52,40.45c-15.44,3.71-31.1,1.55-46.67,1.65
			c-1.44,0.01-2.45-2.07-4.2-1.03c11.91,11.38-17.06,33.79,8.43,38.51c-5.69-4.71-12.45-11.84-6.57-24.18
			c5.43-11.41,14.48-15.52,25.74-12.91c7.95,1.85,15.73-3.1,23.26,0.94c25.4,12.23,55.54,16.91,71.08,44.83
			c1.17,2.1,3.05,4.45,5.16,5.3c18.71,7.55,24.65,16.19,3.49,28.7c-7.31,4.32,1.49,10.64-1.01,15.81
			c-1.91,9.17-6.17,14.51-16.44,10.06c-7.26-3.14-16.03-3.63-22.02-8.41c-9.07-7.24-17.9-6.74-27.66-3.4
			c-11.37-14.17-10.58-16.74,10.75-29.27c-7.96,0.37-10.32-11.05-17.47-5.37c-5.81,4.61-7.42,12.24-3.51,19.78
			c4.33,8.34,1.47,15.24-4.59,21.33c-6.65,6.69-13.84,6.22-21.51,1.68c-5.21-3.08-10.92-4.9-16.99-2.92
			c-7.22,2.37-13.34,6.57-14.47,14.57c-1.12,7.95,4.73,11.68,11.14,14.26c13.27,5.34,26.33,11.21,38.57,15.71
			c12.92-13.97,7.77-33.32,16.78-48.13c13.02-7.39,24.04-0.22,35.3,4.93c6.36,2.91,13.6,3.32,18.55,10.09
			c2.65,3.63,8.11-9.06,13.57-1.03c10.78,16.44,20.48,33.06,36.46,46.2c10.77,8.85,10.47,27.03,20.18,39.22
			c4.97,6.24-0.52,12.08-9.85,10.02c-8.89-1.96-17.88-3.42-26.83-5.1c-0.36-0.51-0.62-1.15-1.09-1.51c-3.41-2.61,1.17-7.8-3.21-9.87
			c-0.6-0.28-2.36,1.24-2.68,2.32c-1.89,6.46,5.53,5.24,7.35,8.71c2.08,12.19-15.37,27.29-29.76,23.18
			c-10.29-2.94-12.2,2.93-18.95,6.82c-22.17,12.76-21.32,41.88-43.65,53.6c-12.56,6.59-9.95,19.64,1.47,23.72
			c12.87,4.6,16.4,13.11,19.49,23.8c-7.07,1.64-13.63-2.46-20.62-1.8c-3.7-0.78-5.96-3.9-9.09-5.61
			c-5.6-3.58-11.26-7.61-12.92-14.22c-2.38-9.46-14.47-12.25-16.19-10.05c-12,15.29-39.44-10.39-45.58,17.99
			c-1.7,7.85-4.2,15.32-0.37,22.93c6.41,12.73,16.14,14.06,24.41,3.42c6.16-7.94,13.48-6.68,18.97-4.26
			c6.79,2.99,3.23,10.34,0.3,15.34c-4.95,8.45-2.13,11.78,6.8,12.66c8.93,0.88,12,6.06,11.06,14.96
			c-1.86,17.5,7.97,21.88,23.2,19.43c1.14,1.71,1.13,3.43-0.01,5.14c-16.4,6.88-27.56-0.04-37.86-12.79
			c-12.01-14.86-29.73-19.21-47.59-23.69c-19.69-4.94-42.19-6.92-48.01-33.18c-1.04-4.71-3.1-10.33-12.77-4.12
			c-9.04,5.81-13.46-7.87-18.51-14.72c-14.33-19.42-29.12-38.45-45.65-56.12c-10.55-11.28-15.15-25.85-10.73-40.1
			c7.54-24.33-18.3-32.86-21.71-51.51c-29.12,4.54-24.04-28.64-43.16-39.03c-29.74-16.15-41.12-19.9-64.55,5.43
			c-0.87,0.94-2.08,2.22-3.15,2.24c-24.82,0.44-42.59,19.34-65.45,24.89c-3.4,0.83-7.16,1.66-8.7-1.67
			c-2.13-4.57,1.8-7.39,5.26-9.25c11.42-6.13,23-11.93,36.25-18.74c-8.79-5.29-16.41-9.53-23.64-14.35
			c-4.98-3.32-11.57-8.96-9.79-13.78c4.71-12.72,4.63-22.2-8.13-29.79c-2.73-1.62-1.54-6.2,2.44-7.66
			c10.13-3.71,13.8-6.62,3.4-16.43c-5.38-5.07,4.86-10.79,9.87-13.73c24.31-14.24,52.34-19.17,77.82-11.31
			c39.07,12.05,77.47,7.59,116.4,5.77c5.22,3.01,10.7,2.21,16.29,0.73C-1175-1206.71-1181.32-1204.75-1185.43-1211.43z"/>
		<path class="st1" d="M-967.28-834.71c0-1.71,0.01-3.42,0.01-5.14c9.2-6.89,17.77-14.65,29.02-18.51c6.68-2.3,13.63-3.3,18.93,1.02
			c7.64,6.22,15.02,7.29,23.79,3.64c1.59-0.66,4.5-0.62,5.62,0.4c17.56,15.98,46.24,18.48,58.11,37.86
			c10.76,17.56,25.53,21.06,40.79,26.09c8.76,2.89,16.65,6.18,24.62,10.78c14.05,8.1,16.66,17.97,7.17,30.53
			c-7.96,10.54-12.92,21.4-15.43,34.88c-2.84,15.29-6.92,32.51-29.19,33.76c-7.42,0.42-12.62,7.42-15.41,16.06
			c-5.69,17.63-20.02,29.45-31.1,43.62c-15.44,19.75-44.06,26.49-50.97,53.95c-3.36,13.35-8.92,26.21-12.94,39.24
			c-4.05,13.16,9.43,16.32,22.56,18.52c-11.15,10.88-21.73,14.91-34.52,10.18c-13.56-5.02-24.34-12.69-25.95-28.96
			c-3.06-30.92,4.15-60.84,10.83-90.29c5.98-26.39,10.52-52.61,11.89-79.52c0.47-9.23-4.08-13.7-11.93-17.96
			c-20.21-10.99-40.85-54.43-37.72-76.71c0.94-6.71,2.62-13.9,8.27-17.28C-957.95-816.27-960.74-824.96-967.28-834.71z"/>
		<path class="st1" d="M-903.99-1312.11c2.89,0.17,5.78,0.33,8.67,0.5c7-8.84,18.49-10.09,27.18-16.09
			c14.46-3.8,28.9-6.78,44.09-4.28c4.89,0.8,11.72,1.02,15.05-1.7c27.36-22.35,61.06-15.64,91.79-18.58
			c23.27-2.23,50.55-2.65,66.2,23.61c3.84,6.45,10.84,3.06,16.33,0.98c11.56-4.37,21.87-2.84,30.95,5.05
			c1.14,4.19-1.65,5.81-3.99,7.27c-29.2,18.17-34.38,33.19-22.97,66.67c0.66,1.94,1.69,5.32,0.88,5.98
			c-27.25,22.1-23.92,70.68-74.66,75.75c-22.43,2.24-48.64,24.32-60.53,51.33c-8.09,18.38-26.44,22.44-39.56,5.95
			c-15.14-19.02-30.42-37.53-30.46-65.93c-0.02-19.75-10.83-40.03-19.17-59.04c-5.81-13.24-17.15-21.79-33.6-18.3
			c-23.09,4.9-38.54-5.06-48.72-25.17c5.69-21.43,26.43-14.01,39.17-21.12c3.17,1.97,2.89-0.92,2.12-0.9
			C-903.38-1299.91-908.2-1302.92-903.99-1312.11z"/>
	</g>
</g>
<g id="Imagotipo_fondo_oscuro">
	<rect y="-3045.18" class="st3" width="1920" height="1080"/>
	<g>
		<g>
			<g>
				<path class="st1" d="M719.18-2381.51v-148.06h-57.62v-34.41h156.92v34.41h-57.62v148.06H719.18z"/>
				<path class="st1" d="M892.56-2379.42c-15.78,0-29.63-3.13-41.54-9.38c-11.92-6.26-21.14-14.81-27.65-25.67
					c-6.52-10.86-9.78-23.24-9.78-37.15c0-14.08,3.21-26.54,9.65-37.41c6.43-10.86,15.22-19.38,26.37-25.55
					c11.15-6.17,23.75-9.25,37.81-9.25c13.54,0,25.76,2.91,36.66,8.73c10.89,5.82,19.51,14.17,25.85,25.02
					c6.34,10.86,9.52,23.85,9.52,38.97c0,1.56-0.09,3.35-0.26,5.34c-0.17,2-0.35,3.87-0.51,5.6H846.26v-23.72h91.32l-15.43,7.04
					c0-7.3-1.46-13.64-4.37-19.03c-2.92-5.38-6.95-9.6-12.09-12.64c-5.14-3.04-11.15-4.56-18.01-4.56c-6.86,0-12.91,1.52-18.14,4.56
					c-5.23,3.04-9.3,7.3-12.22,12.77c-2.92,5.47-4.37,11.95-4.37,19.42v6.26c0,7.65,1.67,14.38,5.02,20.2
					c3.34,5.82,8.06,10.26,14.15,13.29c6.09,3.04,13.25,4.56,21.48,4.56c7.37,0,13.85-1.13,19.42-3.39
					c5.57-2.26,10.67-5.64,15.31-10.17l21.35,23.46c-6.35,7.3-14.32,12.9-23.92,16.81C916.14-2381.38,905.08-2379.42,892.56-2379.42
					z"/>
				<path class="st1" d="M986.2-2381.51v-140.24h38.33v39.62l-5.4-11.47c4.12-9.91,10.71-17.42,19.81-22.55
					c9.09-5.12,20.15-7.69,33.18-7.69v37.54c-1.72-0.17-3.26-0.3-4.63-0.39c-1.37-0.09-2.83-0.13-4.37-0.13
					c-10.98,0-19.85,3.17-26.62,9.51c-6.78,6.35-10.16,16.21-10.16,29.59v66.21H986.2z"/>
				<path class="st1" d="M1096.04-2381.51v-140.24h38.33v39.62l-5.4-11.47c4.12-9.91,10.71-17.42,19.81-22.55
					c9.09-5.12,20.15-7.69,33.18-7.69v37.54c-1.72-0.17-3.26-0.3-4.63-0.39c-1.37-0.09-2.83-0.13-4.37-0.13
					c-10.98,0-19.85,3.17-26.62,9.51c-6.78,6.35-10.16,16.21-10.16,29.59v66.21H1096.04z"/>
				<path class="st1" d="M1239.58-2379.42c-10.8,0-20.06-1.87-27.78-5.6c-7.72-3.74-13.63-8.82-17.75-15.25
					c-4.12-6.43-6.17-13.64-6.17-21.64c0-8.34,2.01-15.64,6.05-21.9c4.03-6.26,10.42-11.16,19.16-14.73
					c8.75-3.56,20.15-5.34,34.21-5.34h36.79v23.72h-32.41c-9.43,0-15.91,1.56-19.42,4.69c-3.52,3.13-5.27,7.04-5.27,11.73
					c0,5.21,2.01,9.34,6.05,12.38c4.03,3.04,9.56,4.56,16.59,4.56c6.69,0,12.69-1.6,18.01-4.82c5.31-3.21,9.17-7.95,11.58-14.21
					l6.17,18.77c-2.92,9.04-8.23,15.9-15.95,20.59C1261.7-2381.77,1251.75-2379.42,1239.58-2379.42z M1281.77-2381.51v-27.37
					l-2.57-6v-49c0-8.69-2.62-15.46-7.85-20.33c-5.23-4.86-13.25-7.3-24.05-7.3c-7.38,0-14.62,1.17-21.74,3.52
					c-7.12,2.35-13.16,5.52-18.13,9.51l-14.41-28.41c7.54-5.38,16.63-9.55,27.27-12.51c10.63-2.95,21.44-4.43,32.41-4.43
					c21.09,0,37.47,5.04,49.13,15.12c11.66,10.08,17.49,25.81,17.49,47.18v80.02H1281.77z"/>
			</g>
			<g>
				<path class="st1" d="M1245.47-2185.03l-77.69-182.47h45.02l67.91,161.61h-26.5l68.94-161.61h41.42l-77.94,182.47H1245.47z"/>
				<path class="st1" d="M1409.07-2182.95c-10.8,0-20.06-1.87-27.78-5.6c-7.72-3.73-13.63-8.82-17.75-15.25
					c-4.12-6.43-6.17-13.64-6.17-21.63c0-8.34,2.01-15.64,6.04-21.9c4.03-6.26,10.42-11.16,19.17-14.73
					c8.75-3.56,20.15-5.34,34.21-5.34h36.79v23.72h-32.41c-9.43,0-15.91,1.56-19.42,4.69c-3.52,3.13-5.27,7.04-5.27,11.73
					c0,5.21,2.01,9.34,6.04,12.38c4.03,3.04,9.56,4.56,16.59,4.56c6.69,0,12.69-1.6,18.01-4.82c5.31-3.21,9.17-7.95,11.58-14.21
					l6.17,18.77c-2.92,9.04-8.23,15.9-15.95,20.59C1431.19-2185.3,1421.25-2182.95,1409.07-2182.95z M1451.26-2185.03v-27.37
					l-2.57-6v-49.01c0-8.69-2.62-15.46-7.85-20.33c-5.23-4.86-13.25-7.3-24.05-7.3c-7.38,0-14.62,1.17-21.74,3.52
					c-7.12,2.35-13.16,5.52-18.14,9.51l-14.41-28.41c7.54-5.38,16.63-9.55,27.27-12.51c10.63-2.95,21.44-4.43,32.41-4.43
					c21.09,0,37.47,5.04,49.13,15.12c11.66,10.08,17.49,25.81,17.49,47.18v80.03H1451.26z"/>
				<path class="st1" d="M1525.08-2185.03v-193.42h40.13v193.42H1525.08z"/>
				<path class="st1" d="M1668.37-2182.95c-14.75,0-27.83-3.13-39.23-9.38c-11.41-6.26-20.41-14.81-27.01-25.68
					c-6.6-10.86-9.9-23.24-9.9-37.14c0-14.08,3.3-26.54,9.9-37.41c6.6-10.86,15.6-19.38,27.01-25.54
					c11.4-6.17,24.48-9.25,39.23-9.25c14.57,0,27.61,3.09,39.1,9.25c11.49,6.17,20.49,14.64,27.01,25.42
					c6.51,10.78,9.77,23.29,9.77,37.54c0,13.9-3.26,26.29-9.77,37.14c-6.52,10.86-15.52,19.42-27.01,25.68
					C1695.97-2186.08,1682.94-2182.95,1668.37-2182.95z M1668.37-2216.32c6.69,0,12.69-1.56,18.01-4.69
					c5.31-3.13,9.52-7.6,12.61-13.42c3.09-5.82,4.63-12.73,4.63-20.72c0-8.17-1.54-15.12-4.63-20.85
					c-3.09-5.74-7.29-10.17-12.61-13.29c-5.32-3.13-11.32-4.69-18.01-4.69c-6.69,0-12.69,1.56-18.01,4.69
					c-5.32,3.13-9.56,7.56-12.73,13.29c-3.18,5.73-4.76,12.69-4.76,20.85c0,8,1.58,14.9,4.76,20.72c3.17,5.82,7.42,10.3,12.73,13.42
					C1655.67-2217.88,1661.68-2216.32,1668.37-2216.32z"/>
				<path class="st1" d="M1771-2185.03v-140.24h38.33v39.62l-5.4-11.47c4.12-9.91,10.72-17.42,19.81-22.55
					c9.09-5.12,20.15-7.69,33.18-7.69v37.54c-1.72-0.17-3.26-0.3-4.63-0.39c-1.38-0.08-2.83-0.13-4.37-0.13
					c-10.98,0-19.85,3.17-26.62,9.51c-6.78,6.35-10.16,16.21-10.16,29.58v66.21H1771z"/>
			</g>
		</g>
		<path class="st4" d="M1019.14-2640.08c-58.56-220.93-255.85-376.72-479.53-381.31c-210.8-4.32-404.86,126.48-482.76,326.79"/>
		<path class="st4" d="M56.65-2325.66c74.05,202.39,267.87,337.49,482.97,336.8c213.7-0.69,405.68-135.27,479.47-336.26"/>
		<path class="st5" d="M300.74-2749.48c-14.3-9.03-5.88-21.08-2.59-30.87c3.61-10.76,14.67-3.6,22.25-5.26
			c12.1,1,24.29,0.42,35.12,8.26c5.46,3.95,12.56,1.46,19.01-0.43c21.46-6.3,22.64-5.48,26.76,15.55c0.38,1.91,1.89,3.42,3.08,4.98
			c-0.79-2.52-0.97,2.44,1.43,1.34c-7.53-14.55-2.81-23.43,11.8-27.45c-1.76-0.24,2.92,0.5,1.55,0.13
			c-9.94-2.67-23.35,0.72-24.97-15.25c-0.39-3.85,0.05-8,4.43-10.11c10.21-3.88,20.85-1.91,31.28-2.45
			c5.02,0.04,10.04,0.12,15.05,0.05c5.64-0.27,11.47,0.53,16.17-2.6c-11.74-3.59-22.4-8.91-28.92-20.3
			c1.82-15.55,7.29-25.04,25.41-17.1c11.12,4.87-2.44-9.48,8.46-10.61c33.94-3.51,66.78-16.29,101.8-11.77
			c12.03,1.55,25.21-2.21,35.17,8.15c0.1,11.37-12.5,10.77-16.86,17.95c-2.98,4.39-9.61,0.19-12.33,5.3
			c-9.48,8.14-20.66,13.6-31.07,20.25c-19.19,6.72-19,28.54-31.52,40.45c-15.44,3.71-31.1,1.55-46.67,1.65
			c-1.44,0.01-2.45-2.07-4.2-1.03c11.91,11.38-17.06,33.79,8.43,38.51c-5.69-4.71-12.45-11.84-6.57-24.18
			c5.43-11.41,14.48-15.52,25.74-12.91c7.95,1.85,15.73-3.1,23.26,0.94c25.4,12.23,55.54,16.91,71.08,44.83
			c1.17,2.1,3.05,4.45,5.16,5.3c18.71,7.55,24.65,16.19,3.49,28.7c-7.31,4.32,1.49,10.64-1.01,15.81
			c-1.91,9.17-6.17,14.51-16.44,10.06c-7.26-3.14-16.03-3.63-22.02-8.41c-9.07-7.24-17.9-6.74-27.66-3.4
			c-11.37-14.17-10.58-16.74,10.75-29.27c-7.96,0.37-10.32-11.05-17.47-5.37c-5.81,4.61-7.42,12.24-3.51,19.78
			c4.33,8.34,1.47,15.24-4.59,21.33c-6.65,6.69-13.84,6.22-21.51,1.68c-5.21-3.08-10.92-4.9-16.99-2.92
			c-7.22,2.37-13.34,6.57-14.47,14.57c-1.12,7.95,4.73,11.68,11.14,14.26c13.27,5.34,26.33,11.21,38.57,15.71
			c12.92-13.97,7.77-33.32,16.78-48.13c13.02-7.39,24.04-0.22,35.3,4.93c6.36,2.91,13.6,3.32,18.55,10.09
			c2.65,3.63,8.11-9.06,13.57-1.03c10.78,16.44,20.48,33.06,36.46,46.2c10.77,8.85,10.47,27.03,20.18,39.22
			c4.97,6.24-0.52,12.08-9.85,10.02c-8.89-1.96-17.88-3.42-26.83-5.1c-0.36-0.51-0.62-1.15-1.09-1.51c-3.41-2.61,1.17-7.8-3.21-9.87
			c-0.6-0.28-2.36,1.24-2.68,2.32c-1.89,6.46,5.53,5.24,7.35,8.7c2.08,12.19-15.37,27.29-29.76,23.18
			c-10.29-2.94-12.2,2.93-18.95,6.82c-22.17,12.76-21.32,41.88-43.65,53.6c-12.56,6.59-9.95,19.64,1.47,23.72
			c12.87,4.6,16.4,13.11,19.49,23.8c-7.07,1.64-13.63-2.46-20.62-1.8c-3.7-0.78-5.96-3.9-9.09-5.61
			c-5.6-3.58-11.26-7.61-12.92-14.22c-2.38-9.46-14.47-12.25-16.19-10.05c-12,15.29-39.44-10.39-45.58,17.99
			c-1.7,7.85-4.2,15.32-0.37,22.93c6.41,12.73,16.14,14.06,24.41,3.42c6.16-7.94,13.48-6.68,18.97-4.26
			c6.79,2.99,3.23,10.34,0.3,15.34c-4.95,8.45-2.13,11.78,6.8,12.66c8.93,0.88,12,6.06,11.06,14.96
			c-1.86,17.5,7.97,21.88,23.2,19.43c1.14,1.71,1.13,3.43-0.01,5.14c-16.4,6.88-27.56-0.04-37.86-12.79
			c-12.01-14.86-29.73-19.21-47.59-23.69c-19.69-4.94-42.19-6.92-48.01-33.18c-1.04-4.71-3.1-10.33-12.77-4.12
			c-9.04,5.81-13.46-7.87-18.51-14.73c-14.33-19.42-29.12-38.45-45.65-56.12c-10.55-11.28-15.15-25.85-10.73-40.1
			c7.54-24.33-18.3-32.86-21.71-51.51c-29.12,4.54-24.04-28.64-43.16-39.03c-29.74-16.15-41.12-19.9-64.55,5.43
			c-0.87,0.94-2.08,2.22-3.15,2.24c-24.82,0.44-42.59,19.34-65.45,24.89c-3.4,0.83-7.16,1.66-8.7-1.67
			c-2.13-4.57,1.8-7.39,5.26-9.25c11.42-6.13,23-11.93,36.25-18.74c-8.79-5.29-16.41-9.53-23.64-14.35
			c-4.98-3.32-11.57-8.96-9.79-13.78c4.71-12.72,4.63-22.2-8.13-29.79c-2.73-1.62-1.54-6.2,2.44-7.66
			c10.13-3.71,13.8-6.61,3.4-16.43c-5.38-5.07,4.86-10.79,9.87-13.73c24.31-14.24,52.34-19.17,77.82-11.31
			c39.07,12.05,77.47,7.59,116.4,5.77c5.22,3,10.7,2.21,16.29,0.73C311.18-2744.76,304.86-2742.81,300.74-2749.48z"/>
		<path class="st5" d="M518.9-2372.76c0-1.71,0.01-3.42,0.01-5.14c9.2-6.89,17.77-14.65,29.02-18.51c6.68-2.3,13.63-3.3,18.93,1.02
			c7.64,6.22,15.02,7.29,23.79,3.64c1.59-0.66,4.5-0.62,5.62,0.4c17.56,15.98,46.24,18.48,58.11,37.86
			c10.76,17.56,25.53,21.06,40.79,26.09c8.76,2.89,16.65,6.18,24.62,10.78c14.05,8.1,16.66,17.97,7.17,30.53
			c-7.96,10.54-12.92,21.4-15.43,34.88c-2.84,15.29-6.92,32.51-29.19,33.76c-7.42,0.42-12.62,7.42-15.41,16.06
			c-5.69,17.63-20.02,29.45-31.1,43.62c-15.44,19.75-44.06,26.49-50.97,53.95c-3.36,13.35-8.92,26.21-12.94,39.24
			c-4.05,13.16,9.43,16.31,22.56,18.52c-11.15,10.88-21.73,14.91-34.52,10.18c-13.56-5.02-24.34-12.69-25.95-28.96
			c-3.06-30.92,4.15-60.84,10.83-90.29c5.98-26.39,10.52-52.61,11.89-79.52c0.47-9.23-4.08-13.7-11.93-17.96
			c-20.21-10.99-40.85-54.43-37.72-76.71c0.94-6.71,2.62-13.9,8.27-17.28C528.22-2354.32,525.44-2363.02,518.9-2372.76z"/>
		<path class="st5" d="M582.19-2850.16c2.89,0.17,5.78,0.33,8.67,0.5c7-8.84,18.49-10.09,27.18-16.09
			c14.46-3.8,28.9-6.78,44.09-4.28c4.89,0.8,11.72,1.02,15.05-1.7c27.36-22.35,61.06-15.64,91.79-18.58
			c23.27-2.23,50.55-2.65,66.2,23.61c3.84,6.45,10.84,3.06,16.33,0.98c11.56-4.37,21.87-2.84,30.95,5.05
			c1.14,4.19-1.65,5.81-3.99,7.27c-29.2,18.17-34.38,33.19-22.97,66.67c0.66,1.94,1.69,5.32,0.88,5.98
			c-27.25,22.1-23.92,70.68-74.66,75.75c-22.43,2.24-48.64,24.32-60.53,51.33c-8.09,18.38-26.44,22.44-39.56,5.95
			c-15.14-19.02-30.42-37.53-30.46-65.93c-0.02-19.75-10.83-40.03-19.17-59.04c-5.81-13.24-17.15-21.79-33.6-18.3
			c-23.09,4.9-38.54-5.06-48.72-25.17c5.69-21.43,26.43-14.01,39.17-21.12c3.17,1.97,2.89-0.92,2.12-0.9
			C582.8-2837.96,577.98-2840.97,582.19-2850.16z"/>
	</g>
</g>
<g id="Imagotipo_fondo_claro">
	<g>
		<g>
			<g>
				<path d="M-1404.11-2381.51v-148.06h-57.62v-34.41h156.92v34.41h-57.62v148.06H-1404.11z"/>
				<path d="M-1230.73-2379.42c-15.78,0-29.63-3.13-41.54-9.38c-11.92-6.26-21.14-14.81-27.65-25.67
					c-6.52-10.86-9.78-23.24-9.78-37.15c0-14.08,3.22-26.54,9.65-37.41c6.43-10.86,15.22-19.38,26.37-25.55
					c11.15-6.17,23.75-9.25,37.81-9.25c13.55,0,25.76,2.91,36.66,8.73c10.89,5.82,19.51,14.17,25.85,25.02
					c6.34,10.86,9.52,23.85,9.52,38.97c0,1.56-0.09,3.35-0.26,5.34c-0.17,2-0.35,3.87-0.51,5.6h-112.41v-23.72h91.32l-15.43,7.04
					c0-7.3-1.46-13.64-4.37-19.03c-2.92-5.38-6.95-9.6-12.09-12.64c-5.15-3.04-11.15-4.56-18.01-4.56c-6.86,0-12.91,1.52-18.14,4.56
					c-5.23,3.04-9.3,7.3-12.22,12.77c-2.92,5.47-4.37,11.95-4.37,19.42v6.26c0,7.65,1.67,14.38,5.02,20.2
					c3.34,5.82,8.06,10.26,14.15,13.29c6.09,3.04,13.25,4.56,21.48,4.56c7.37,0,13.85-1.13,19.42-3.39
					c5.57-2.26,10.68-5.64,15.31-10.17l21.35,23.46c-6.35,7.3-14.32,12.9-23.92,16.81
					C-1207.16-2381.38-1218.22-2379.42-1230.73-2379.42z"/>
				<path d="M-1137.1-2381.51v-140.24h38.33v39.62l-5.4-11.47c4.12-9.91,10.72-17.42,19.81-22.55c9.09-5.12,20.15-7.69,33.18-7.69
					v37.54c-1.72-0.17-3.26-0.3-4.63-0.39c-1.37-0.09-2.83-0.13-4.37-0.13c-10.98,0-19.85,3.17-26.62,9.51
					c-6.78,6.35-10.16,16.21-10.16,29.59v66.21H-1137.1z"/>
				<path d="M-1027.26-2381.51v-140.24h38.33v39.62l-5.4-11.47c4.12-9.91,10.72-17.42,19.81-22.55c9.09-5.12,20.15-7.69,33.18-7.69
					v37.54c-1.72-0.17-3.26-0.3-4.63-0.39c-1.38-0.09-2.83-0.13-4.37-0.13c-10.98,0-19.85,3.17-26.62,9.51
					c-6.78,6.35-10.16,16.21-10.16,29.59v66.21H-1027.26z"/>
				<path d="M-883.71-2379.42c-10.8,0-20.07-1.87-27.78-5.6c-7.72-3.74-13.63-8.82-17.75-15.25c-4.12-6.43-6.17-13.64-6.17-21.64
					c0-8.34,2.01-15.64,6.04-21.9c4.03-6.26,10.42-11.16,19.16-14.73c8.75-3.56,20.15-5.34,34.21-5.34h36.79v23.72h-32.41
					c-9.43,0-15.91,1.56-19.42,4.69c-3.52,3.13-5.27,7.04-5.27,11.73c0,5.21,2.01,9.34,6.04,12.38c4.03,3.04,9.56,4.56,16.59,4.56
					c6.69,0,12.69-1.6,18.01-4.82c5.31-3.21,9.17-7.95,11.58-14.21l6.17,18.77c-2.92,9.04-8.23,15.9-15.95,20.59
					C-861.59-2381.77-871.54-2379.42-883.71-2379.42z M-841.53-2381.51v-27.37l-2.57-6v-49c0-8.69-2.62-15.46-7.85-20.33
					c-5.23-4.86-13.25-7.3-24.05-7.3c-7.38,0-14.62,1.17-21.74,3.52c-7.12,2.35-13.16,5.52-18.14,9.51l-14.41-28.41
					c7.54-5.38,16.63-9.55,27.27-12.51c10.63-2.95,21.43-4.43,32.41-4.43c21.09,0,37.47,5.04,49.13,15.12
					c11.66,10.08,17.49,25.81,17.49,47.18v80.02H-841.53z"/>
			</g>
			<g>
				<path d="M-877.82-2185.03l-77.69-182.47h45.02l67.91,161.61h-26.5l68.94-161.61h41.42l-77.94,182.47H-877.82z"/>
				<path d="M-714.22-2182.95c-10.8,0-20.06-1.87-27.78-5.6c-7.72-3.73-13.63-8.82-17.75-15.25c-4.12-6.43-6.17-13.64-6.17-21.63
					c0-8.34,2.01-15.64,6.04-21.9c4.03-6.26,10.42-11.16,19.16-14.73c8.75-3.56,20.15-5.34,34.21-5.34h36.79v23.72h-32.41
					c-9.43,0-15.91,1.56-19.42,4.69c-3.52,3.13-5.27,7.04-5.27,11.73c0,5.21,2.01,9.34,6.04,12.38c4.03,3.04,9.56,4.56,16.59,4.56
					c6.69,0,12.69-1.6,18.01-4.82c5.31-3.21,9.17-7.95,11.58-14.21l6.17,18.77c-2.92,9.04-8.23,15.9-15.95,20.59
					C-692.1-2185.3-702.05-2182.95-714.22-2182.95z M-672.03-2185.03v-27.37l-2.57-6v-49.01c0-8.69-2.62-15.46-7.85-20.33
					c-5.23-4.86-13.25-7.3-24.05-7.3c-7.38,0-14.62,1.17-21.74,3.52c-7.12,2.35-13.16,5.52-18.13,9.51l-14.41-28.41
					c7.54-5.38,16.63-9.55,27.27-12.51c10.63-2.95,21.44-4.43,32.41-4.43c21.09,0,37.47,5.04,49.13,15.12
					c11.66,10.08,17.49,25.81,17.49,47.18v80.03H-672.03z"/>
				<path d="M-598.21-2185.03v-193.42h40.13v193.42H-598.21z"/>
				<path d="M-454.93-2182.95c-14.75,0-27.83-3.13-39.23-9.38c-11.41-6.26-20.41-14.81-27.01-25.68c-6.6-10.86-9.9-23.24-9.9-37.14
					c0-14.08,3.3-26.54,9.9-37.41c6.6-10.86,15.6-19.38,27.01-25.54c11.4-6.17,24.48-9.25,39.23-9.25c14.57,0,27.61,3.09,39.1,9.25
					c11.49,6.17,20.49,14.64,27.01,25.42c6.51,10.78,9.77,23.29,9.77,37.54c0,13.9-3.26,26.29-9.77,37.14
					c-6.52,10.86-15.52,19.42-27.01,25.68C-427.32-2186.08-440.35-2182.95-454.93-2182.95z M-454.93-2216.32
					c6.69,0,12.69-1.56,18.01-4.69c5.31-3.13,9.52-7.6,12.61-13.42c3.09-5.82,4.63-12.73,4.63-20.72c0-8.17-1.54-15.12-4.63-20.85
					c-3.09-5.74-7.29-10.17-12.61-13.29c-5.32-3.13-11.32-4.69-18.01-4.69c-6.69,0-12.69,1.56-18.01,4.69
					c-5.32,3.13-9.56,7.56-12.73,13.29c-3.18,5.73-4.76,12.69-4.76,20.85c0,8,1.58,14.9,4.76,20.72c3.17,5.82,7.42,10.3,12.73,13.42
					C-467.62-2217.88-461.62-2216.32-454.93-2216.32z"/>
				<path d="M-352.29-2185.03v-140.24h38.33v39.62l-5.4-11.47c4.12-9.91,10.71-17.42,19.81-22.55c9.09-5.12,20.15-7.69,33.18-7.69
					v37.54c-1.72-0.17-3.26-0.3-4.63-0.39c-1.37-0.08-2.83-0.13-4.37-0.13c-10.98,0-19.85,3.17-26.62,9.51
					c-6.78,6.35-10.16,16.21-10.16,29.58v66.21H-352.29z"/>
			</g>
		</g>
		<path class="st2" d="M-1104.15-2640.08c-58.56-220.93-255.85-376.72-479.53-381.31c-210.8-4.32-404.86,126.48-482.76,326.79"/>
		<path class="st2" d="M-2066.65-2325.66c74.05,202.39,267.87,337.49,482.97,336.8c213.7-0.69,405.68-135.27,479.47-336.26"/>
		<path class="st5" d="M-1822.55-2749.48c-14.3-9.03-5.88-21.08-2.59-30.87c3.61-10.76,14.67-3.6,22.25-5.26
			c12.1,1,24.29,0.42,35.12,8.26c5.46,3.95,12.56,1.46,19.01-0.43c21.46-6.3,22.64-5.48,26.76,15.55c0.38,1.91,1.89,3.42,3.08,4.98
			c-0.79-2.52-0.97,2.44,1.43,1.34c-7.53-14.55-2.81-23.43,11.8-27.45c-1.76-0.24,2.92,0.5,1.55,0.13
			c-9.94-2.67-23.35,0.72-24.97-15.25c-0.39-3.85,0.05-8,4.43-10.11c10.21-3.88,20.85-1.91,31.28-2.45
			c5.02,0.04,10.04,0.12,15.05,0.05c5.64-0.27,11.47,0.53,16.17-2.6c-11.74-3.59-22.4-8.91-28.92-20.3
			c1.82-15.55,7.29-25.04,25.41-17.1c11.12,4.87-2.44-9.48,8.46-10.61c33.94-3.51,66.78-16.29,101.8-11.77
			c12.03,1.55,25.21-2.21,35.17,8.15c0.1,11.37-12.5,10.77-16.86,17.95c-2.98,4.39-9.61,0.19-12.33,5.3
			c-9.48,8.14-20.66,13.6-31.07,20.25c-19.19,6.72-19,28.54-31.52,40.45c-15.44,3.71-31.1,1.55-46.67,1.65
			c-1.44,0.01-2.45-2.07-4.2-1.03c11.91,11.38-17.06,33.79,8.43,38.51c-5.69-4.71-12.45-11.84-6.57-24.18
			c5.43-11.41,14.48-15.52,25.74-12.91c7.95,1.85,15.73-3.1,23.26,0.94c25.4,12.23,55.54,16.91,71.08,44.83
			c1.17,2.1,3.05,4.45,5.16,5.3c18.71,7.55,24.65,16.19,3.49,28.7c-7.31,4.32,1.49,10.64-1.01,15.81
			c-1.91,9.17-6.17,14.51-16.44,10.06c-7.26-3.14-16.03-3.63-22.02-8.41c-9.07-7.24-17.9-6.74-27.66-3.4
			c-11.37-14.17-10.58-16.74,10.75-29.27c-7.96,0.37-10.32-11.05-17.47-5.37c-5.81,4.61-7.42,12.24-3.51,19.78
			c4.33,8.34,1.47,15.24-4.59,21.33c-6.65,6.69-13.84,6.22-21.51,1.68c-5.21-3.08-10.92-4.9-16.99-2.92
			c-7.22,2.37-13.34,6.57-14.47,14.57c-1.12,7.95,4.73,11.68,11.14,14.26c13.27,5.34,26.33,11.21,38.57,15.71
			c12.92-13.97,7.77-33.32,16.78-48.13c13.02-7.39,24.04-0.22,35.3,4.93c6.36,2.91,13.6,3.32,18.55,10.09
			c2.65,3.63,8.11-9.06,13.57-1.03c10.78,16.44,20.48,33.06,36.46,46.2c10.77,8.85,10.47,27.03,20.18,39.22
			c4.97,6.24-0.52,12.08-9.85,10.02c-8.89-1.96-17.88-3.42-26.83-5.1c-0.36-0.51-0.62-1.15-1.09-1.51c-3.41-2.61,1.17-7.8-3.21-9.87
			c-0.6-0.28-2.36,1.24-2.68,2.32c-1.89,6.46,5.53,5.24,7.35,8.7c2.08,12.19-15.37,27.29-29.76,23.18
			c-10.29-2.94-12.2,2.93-18.95,6.82c-22.17,12.76-21.32,41.88-43.65,53.6c-12.56,6.59-9.95,19.64,1.47,23.72
			c12.87,4.6,16.4,13.11,19.49,23.8c-7.07,1.64-13.63-2.46-20.62-1.8c-3.7-0.78-5.96-3.9-9.09-5.61
			c-5.6-3.58-11.26-7.61-12.92-14.22c-2.38-9.46-14.47-12.25-16.19-10.05c-12,15.29-39.44-10.39-45.58,17.99
			c-1.7,7.85-4.2,15.32-0.37,22.93c6.41,12.73,16.14,14.06,24.41,3.42c6.16-7.94,13.48-6.68,18.97-4.26
			c6.79,2.99,3.23,10.34,0.3,15.34c-4.95,8.45-2.13,11.78,6.8,12.66c8.93,0.88,12,6.06,11.06,14.96
			c-1.86,17.5,7.97,21.88,23.2,19.43c1.14,1.71,1.13,3.43-0.01,5.14c-16.4,6.88-27.56-0.04-37.86-12.79
			c-12.01-14.86-29.73-19.21-47.59-23.69c-19.69-4.94-42.19-6.92-48.01-33.18c-1.04-4.71-3.1-10.33-12.77-4.12
			c-9.04,5.81-13.46-7.87-18.51-14.73c-14.33-19.42-29.12-38.45-45.65-56.12c-10.55-11.28-15.15-25.85-10.73-40.1
			c7.54-24.33-18.3-32.86-21.71-51.51c-29.12,4.54-24.04-28.64-43.16-39.03c-29.74-16.15-41.12-19.9-64.55,5.43
			c-0.87,0.94-2.08,2.22-3.15,2.24c-24.82,0.44-42.59,19.34-65.45,24.89c-3.4,0.83-7.16,1.66-8.7-1.67
			c-2.13-4.57,1.8-7.39,5.26-9.25c11.42-6.13,23-11.93,36.25-18.74c-8.79-5.29-16.41-9.53-23.64-14.35
			c-4.98-3.32-11.57-8.96-9.79-13.78c4.71-12.72,4.63-22.2-8.13-29.79c-2.73-1.62-1.54-6.2,2.44-7.66
			c10.13-3.71,13.8-6.61,3.4-16.43c-5.38-5.07,4.86-10.79,9.87-13.73c24.31-14.24,52.34-19.17,77.82-11.31
			c39.07,12.05,77.47,7.59,116.4,5.77c5.22,3,10.7,2.21,16.29,0.73C-1812.11-2744.76-1818.44-2742.81-1822.55-2749.48z"/>
		<path class="st5" d="M-1604.4-2372.76c0-1.71,0.01-3.42,0.01-5.14c9.2-6.89,17.77-14.65,29.02-18.51
			c6.68-2.3,13.63-3.3,18.93,1.02c7.64,6.22,15.02,7.29,23.79,3.64c1.59-0.66,4.5-0.62,5.62,0.4
			c17.56,15.98,46.24,18.48,58.11,37.86c10.76,17.56,25.53,21.06,40.79,26.09c8.76,2.89,16.65,6.18,24.62,10.78
			c14.05,8.1,16.66,17.97,7.17,30.53c-7.96,10.54-12.92,21.4-15.43,34.88c-2.84,15.29-6.92,32.51-29.19,33.76
			c-7.42,0.42-12.62,7.42-15.41,16.06c-5.69,17.63-20.02,29.45-31.1,43.62c-15.44,19.75-44.06,26.49-50.97,53.95
			c-3.36,13.35-8.92,26.21-12.94,39.24c-4.05,13.16,9.43,16.31,22.56,18.52c-11.15,10.88-21.73,14.91-34.52,10.18
			c-13.56-5.02-24.34-12.69-25.95-28.96c-3.06-30.92,4.15-60.84,10.83-90.29c5.98-26.39,10.52-52.61,11.89-79.52
			c0.47-9.23-4.08-13.7-11.93-17.96c-20.21-10.99-40.85-54.43-37.72-76.71c0.94-6.71,2.62-13.9,8.27-17.28
			C-1595.07-2354.32-1597.85-2363.02-1604.4-2372.76z"/>
		<path class="st5" d="M-1541.1-2850.16c2.89,0.17,5.78,0.33,8.67,0.5c7-8.84,18.49-10.09,27.18-16.09
			c14.46-3.8,28.9-6.78,44.09-4.28c4.89,0.8,11.72,1.02,15.05-1.7c27.36-22.35,61.06-15.64,91.79-18.58
			c23.27-2.23,50.55-2.65,66.2,23.61c3.84,6.45,10.84,3.06,16.33,0.98c11.56-4.37,21.87-2.84,30.95,5.05
			c1.14,4.19-1.65,5.81-3.99,7.27c-29.2,18.17-34.38,33.19-22.97,66.67c0.66,1.94,1.69,5.32,0.88,5.98
			c-27.25,22.1-23.92,70.68-74.66,75.75c-22.43,2.24-48.64,24.32-60.53,51.33c-8.09,18.38-26.44,22.44-39.56,5.95
			c-15.14-19.02-30.42-37.53-30.46-65.93c-0.02-19.75-10.83-40.03-19.17-59.04c-5.81-13.24-17.15-21.79-33.6-18.3
			c-23.09,4.9-38.54-5.06-48.72-25.17c5.69-21.43,26.43-14.01,39.17-21.12c3.17,1.97,2.89-0.92,2.12-0.9
			C-1540.49-2837.96-1545.32-2840.97-1541.1-2850.16z"/>
	</g>
	<g>
	</g>
	<g>
	</g>
	<g>
	</g>
	<g>
	</g>
	<g>
	</g>
	<g>
	</g>
</g>
</svg>
