<?xml version="1.0" encoding="utf-8"?>
<!-- Generator: Adobe Illustrator 26.0.0, SVG Export Plug-In . SVG Version: 6.00 Build 0)  -->
<svg version="1.1" xmlns="http://www.w3.org/2000/svg" xmlns:xlink="http://www.w3.org/1999/xlink" x="0px" y="0px"
	 viewBox="0 0 1917 1080" style="enable-background:new 0 0 1917 1080;" xml:space="preserve">
<style type="text/css">
	.st0{display:none;}
	.st1{display:inline;}
	.st2{fill:#FFFFFF;}
	.st3{fill:none;stroke:#FFFFFF;stroke-width:5;}
	.st4{fill:none;stroke:#000000;stroke-width:5;}
	.st5{display:inline;fill:#565B68;}
	.st6{fill:#17181C;}
	.st7{fill:#9BA5C9;}
	.st8{fill:#FA4753;}
	.st9{display:inline;fill:#FFFFFF;}
	.st10{fill:none;}
	.st11{display:inline;fill:#1D1D1B;stroke:#FFFFFF;stroke-width:5;stroke-linecap:round;stroke-miterlimit:10;}
	.st12{display:inline;fill:#9BA5C9;}
	.st13{display:inline;fill:none;stroke:#FA4753;stroke-width:5;stroke-linecap:round;stroke-miterlimit:10;}
	.st14{display:inline;fill:#FA4753;}
	.st15{display:inline;fill:#FFFFFF;stroke:#FFFFFF;stroke-width:5;stroke-miterlimit:10;}
	.st16{display:inline;fill:none;stroke:#000000;stroke-width:5;stroke-linecap:round;stroke-miterlimit:10;}
	.st17{display:inline;fill:none;}
	.st18{display:none;fill:none;stroke:#17181C;stroke-width:20;stroke-miterlimit:10;}
	.st19{fill:none;stroke:#17181C;stroke-width:20;stroke-linecap:round;stroke-miterlimit:10;}
	.st20{display:inline;fill:#010101;}
	.st21{display:inline;fill:#080808;}
	.st22{display:inline;fill:#060606;}
	.st23{display:inline;fill:#070707;}
	.st24{display:inline;fill:#0B0B0B;}
	.st25{display:inline;fill:#0E0E0E;}
	.st26{display:inline;fill:#0A0A0A;}
	.st27{display:inline;fill:#120D13;}
	.st28{display:inline;fill:#0A080B;}
	.st29{display:inline;fill:#170D13;}
	.st30{display:inline;fill:#130D13;}
	.st31{display:inline;fill:#120D10;}
	.st32{display:inline;fill:#130C14;}
	.st33{display:inline;fill:#130B10;}
	.st34{display:inline;fill:#18111A;}
	.st35{display:inline;fill:#120E17;}
	.st36{display:inline;fill:#130E17;}
	.st37{display:inline;fill:#171015;}
	.st38{display:inline;fill:#171317;}
	.st39{display:inline;fill:#111111;}
	.st40{display:inline;fill:#100F15;}
	.st41{display:inline;fill:#242424;}
	.st42{display:inline;fill:#FCFCFC;}
	.st43{display:inline;fill:#F9F9F9;}
	.st44{display:inline;fill:#E1E3D9;}
	.st45{display:inline;fill:#F4F7F5;}
	.st46{display:inline;fill:#F1F6F2;}
	.st47{display:inline;fill:#F0F3F2;}
	.st48{display:inline;fill:#F4F8F4;}
	.st49{display:inline;fill:#F1F5F3;}
	.st50{display:inline;fill:#F7B385;}
	.st51{display:inline;fill:#C8C3F8;}
	.st52{display:inline;fill:#C4E5C9;}
	.st53{display:inline;fill:#F8CCE0;}
	.st54{display:inline;fill:#D2E4F7;}
	.st55{display:inline;fill:#EFF57C;}
	.st56{display:inline;fill:#8AF0CE;}
	.st57{display:inline;fill:#17181C;}
	.st58{fill:#1975BA;}
	.st59{fill:#E5E5E5;}
	.st60{fill:#B2B2B2;}
	.st61{fill:#EFEFEF;}
	.st62{fill:#F1E2D4;}
	.st63{fill:#E3030B;}
	.st64{fill:#FE0C1A;}
	.st65{fill:#AE0103;}
	.st66{fill:#F4050F;}
	.st67{fill:#FFD240;}
	.st68{fill:#F7F7F7;}
	.st69{fill:#FCFCFC;}
	.st70{fill:#255B37;}
	.st71{fill:#07ACEC;}
	.st72{fill:#FBB017;}
	.st73{fill:none;stroke:#000000;stroke-width:3;stroke-miterlimit:10;}
	.st74{fill:none;stroke:#000000;stroke-width:4;stroke-miterlimit:10;}
	.st75{fill:none;stroke:#FBB017;stroke-width:5;stroke-miterlimit:10;}
	.st76{fill:#414143;}
	.st77{display:inline;fill:none;stroke:#666666;stroke-width:3;stroke-miterlimit:10;}
	.st78{fill:#666666;}
	.st79{fill:#662482;}
	.st80{fill:#FAE922;}
	.st81{fill:#FFFFFF;stroke:#1D1D1B;stroke-miterlimit:10;}
	.st82{fill:none;stroke:#666666;stroke-width:3;stroke-miterlimit:10;}
	.st83{fill:#FF3E3E;}
</style>
<g id="Líneas_guía" class="st0">
</g>
<g id="Logo_finalizado_blanco" class="st0">
	<g id="Fondo" class="st1">
	</g>
</g>
<g id="Logo_finalizado_negro" class="st0">
</g>
<g id="Propuesta_4" class="st0">
</g>
<g id="Propuesta_3" class="st0">
</g>
<g id="Propuesta_2" class="st0">
</g>
<g id="Propuesta_1" class="st0">
	<g id="Logo" class="st1">
	</g>
</g>
<g id="Logo_3" class="st0">
	<g id="Fresa" class="st1">
	</g>
</g>
<g id="Línea_gráfica_C_x26_S_copia" class="st0">
</g>
<g id="Geo_Sans" class="st0">
	<g id="Trazos_copia_4" class="st1">
	</g>
	<g id="Pesos_de_letra_copia_2" class="st1">
	</g>
</g>
<g id="kollektif_00000036948847405345575880000002186839528666671005_" class="st0">
	<g id="Trazos_copia_3" class="st1">
	</g>
	<g id="Pesos_de_letra_copia" class="st1">
	</g>
</g>
<g id="Gilroy" class="st0">
	<g id="Trazos" class="st1">
	</g>
	<g id="Pesos_de_letra" class="st1">
	</g>
</g>
<g id="Paleta_de_colores" class="st0">
</g>
<g id="Colores" class="st0">
</g>
<g id="PAPÚ_x27_S_STORE">
	<g id="Isotipo3">
	</g>
	<g id="Isotipo2">
	</g>
	<g id="Isotipo1">
	</g>
	<g id="Logotipo_00000008149281346760968470000005711046220533277074_">
	</g>
	<g id="Imagotipo_00000054231693249001662930000002885042960801230992_">
	</g>
</g>
<g id="TerraValor">
	<g>
		<g>
			<g>
				<path d="M734.33,663.62V515.56h-57.62v-34.41h156.92v34.41H776v148.06H734.33z"/>
				<path d="M907.71,665.71c-15.78,0-29.63-3.13-41.54-9.38c-11.92-6.26-21.14-14.81-27.65-25.68c-6.52-10.86-9.78-23.24-9.78-37.15
					c0-14.08,3.22-26.54,9.65-37.41c6.43-10.86,15.22-19.38,26.37-25.55c11.15-6.17,23.75-9.25,37.81-9.25
					c13.55,0,25.76,2.91,36.66,8.73c10.89,5.82,19.51,14.17,25.85,25.02c6.34,10.86,9.52,23.85,9.52,38.97
					c0,1.56-0.09,3.35-0.26,5.34c-0.17,2-0.35,3.87-0.51,5.6H861.41v-23.72h91.32l-15.43,7.04c0-7.3-1.46-13.64-4.37-19.03
					c-2.92-5.38-6.95-9.6-12.09-12.64c-5.14-3.04-11.15-4.56-18.01-4.56c-6.86,0-12.91,1.52-18.14,4.56
					c-5.23,3.04-9.3,7.3-12.22,12.77c-2.92,5.47-4.37,11.95-4.37,19.42v6.26c0,7.65,1.67,14.38,5.02,20.2
					c3.34,5.82,8.06,10.26,14.15,13.29c6.09,3.04,13.25,4.56,21.48,4.56c7.37,0,13.85-1.13,19.42-3.39
					c5.57-2.26,10.68-5.65,15.31-10.17l21.35,23.46c-6.35,7.3-14.32,12.9-23.92,16.81C931.29,663.75,920.23,665.71,907.71,665.71z"
					/>
				<path d="M1001.34,663.62V523.38h38.33V563l-5.4-11.47c4.12-9.91,10.72-17.42,19.81-22.55c9.09-5.12,20.15-7.69,33.18-7.69v37.54
					c-1.72-0.17-3.26-0.3-4.63-0.39c-1.37-0.09-2.83-0.13-4.37-0.13c-10.98,0-19.85,3.17-26.62,9.51
					c-6.78,6.35-10.16,16.21-10.16,29.59v66.21H1001.34z"/>
				<path d="M1111.19,663.62V523.38h38.33V563l-5.4-11.47c4.12-9.91,10.72-17.42,19.81-22.55c9.09-5.12,20.15-7.69,33.18-7.69v37.54
					c-1.72-0.17-3.26-0.3-4.63-0.39c-1.37-0.09-2.83-0.13-4.37-0.13c-10.98,0-19.85,3.17-26.62,9.51
					c-6.78,6.35-10.16,16.21-10.16,29.59v66.21H1111.19z"/>
				<path d="M1254.73,665.71c-10.8,0-20.06-1.87-27.78-5.6c-7.72-3.73-13.63-8.82-17.75-15.25c-4.12-6.43-6.17-13.64-6.17-21.64
					c0-8.34,2.01-15.64,6.05-21.9c4.03-6.26,10.42-11.16,19.16-14.73c8.75-3.56,20.15-5.34,34.21-5.34h36.79v23.72h-32.41
					c-9.43,0-15.91,1.56-19.42,4.69c-3.52,3.13-5.27,7.04-5.27,11.73c0,5.21,2.01,9.34,6.05,12.38c4.03,3.04,9.56,4.56,16.59,4.56
					c6.69,0,12.69-1.6,18.01-4.82c5.31-3.21,9.17-7.95,11.58-14.21l6.17,18.77c-2.92,9.04-8.23,15.9-15.95,20.59
					C1276.85,663.36,1266.9,665.71,1254.73,665.71z M1296.92,663.62v-27.37l-2.57-6v-49.01c0-8.69-2.62-15.46-7.85-20.33
					c-5.23-4.86-13.25-7.3-24.05-7.3c-7.38,0-14.62,1.17-21.74,3.52c-7.12,2.35-13.16,5.52-18.14,9.51l-14.41-28.41
					c7.54-5.38,16.63-9.55,27.27-12.51c10.63-2.95,21.44-4.43,32.41-4.43c21.09,0,37.47,5.04,49.13,15.12
					c11.66,10.08,17.49,25.81,17.49,47.18v80.02H1296.92z"/>
			</g>
			<g>
				<path d="M1260.62,860.09l-77.69-182.47h45.02l67.91,161.61h-26.5l68.94-161.61h41.42l-77.94,182.47H1260.62z"/>
				<path d="M1424.22,862.18c-10.8,0-20.06-1.87-27.78-5.6c-7.72-3.73-13.63-8.82-17.75-15.25c-4.12-6.43-6.17-13.64-6.17-21.64
					c0-8.34,2.01-15.64,6.05-21.9c4.03-6.26,10.42-11.16,19.16-14.73c8.75-3.56,20.15-5.34,34.21-5.34h36.79v23.72h-32.41
					c-9.43,0-15.91,1.56-19.42,4.69c-3.52,3.13-5.27,7.04-5.27,11.73c0,5.21,2.01,9.34,6.05,12.38c4.03,3.04,9.56,4.56,16.59,4.56
					c6.69,0,12.69-1.6,18.01-4.82c5.31-3.21,9.17-7.95,11.58-14.21l6.17,18.77c-2.92,9.04-8.23,15.9-15.95,20.59
					C1446.34,859.83,1436.4,862.18,1424.22,862.18z M1466.41,860.09v-27.37l-2.57-6v-49.01c0-8.69-2.62-15.46-7.85-20.33
					c-5.23-4.86-13.25-7.3-24.05-7.3c-7.38,0-14.62,1.17-21.74,3.52c-7.12,2.35-13.16,5.52-18.14,9.51l-14.41-28.41
					c7.54-5.38,16.63-9.55,27.27-12.51c10.63-2.95,21.44-4.43,32.41-4.43c21.09,0,37.47,5.04,49.13,15.12
					c11.66,10.08,17.49,25.81,17.49,47.18v80.02H1466.41z"/>
				<path d="M1540.23,860.09V666.68h40.13v193.41H1540.23z"/>
				<path d="M1683.51,862.18c-14.75,0-27.83-3.13-39.23-9.38c-11.41-6.26-20.41-14.81-27.01-25.68c-6.6-10.86-9.9-23.24-9.9-37.15
					c0-14.08,3.3-26.54,9.9-37.41c6.6-10.86,15.6-19.38,27.01-25.55c11.4-6.17,24.48-9.25,39.23-9.25c14.57,0,27.61,3.09,39.1,9.25
					c11.49,6.17,20.49,14.64,27.01,25.42c6.51,10.78,9.77,23.29,9.77,37.54c0,13.9-3.26,26.29-9.77,37.15
					c-6.52,10.86-15.52,19.42-27.01,25.68C1711.12,859.05,1698.09,862.18,1683.51,862.18z M1683.51,828.81
					c6.69,0,12.69-1.56,18.01-4.69c5.31-3.13,9.52-7.6,12.61-13.42c3.09-5.82,4.63-12.73,4.63-20.72c0-8.17-1.54-15.12-4.63-20.85
					s-7.29-10.17-12.61-13.29c-5.32-3.13-11.32-4.69-18.01-4.69c-6.69,0-12.69,1.56-18.01,4.69c-5.32,3.13-9.56,7.56-12.73,13.29
					c-3.18,5.73-4.76,12.69-4.76,20.85c0,8,1.58,14.9,4.76,20.72c3.17,5.82,7.42,10.3,12.73,13.42
					C1670.82,827.25,1676.83,828.81,1683.51,828.81z"/>
				<path d="M1786.15,860.09V719.85h38.33v39.62l-5.4-11.47c4.12-9.91,10.72-17.42,19.81-22.55c9.09-5.12,20.15-7.69,33.18-7.69
					v37.54c-1.72-0.17-3.26-0.3-4.63-0.39c-1.37-0.09-2.83-0.13-4.37-0.13c-10.98,0-19.85,3.17-26.62,9.51
					c-6.78,6.35-10.16,16.21-10.16,29.59v66.21H1786.15z"/>
			</g>
		</g>
		<path class="st73" d="M1034.29,405.04C975.7,184.22,778.49,28.46,554.76,23.74c-211.2-4.45-405.62,126.56-483.51,327.19"/>
		<path class="st73" d="M71.8,719.47c74.05,202.39,267.87,337.49,482.97,336.8c213.7-0.69,405.68-135.27,479.47-336.26"/>
		<path class="st76" d="M315.89,295.65c-14.3-9.03-5.88-21.08-2.59-30.87c3.61-10.76,14.67-3.6,22.25-5.26
			c12.1,1,24.29,0.42,35.12,8.26c5.46,3.95,12.56,1.46,19.01-0.43c21.46-6.3,22.64-5.48,26.76,15.55c0.38,1.91,1.89,3.42,3.08,4.98
			c-0.79-2.52-0.97,2.44,1.43,1.34c-7.53-14.55-2.81-23.43,11.8-27.45c-1.76-0.24,2.92,0.5,1.55,0.13
			c-9.94-2.67-23.35,0.72-24.97-15.25c-0.39-3.85,0.05-8,4.43-10.11c10.21-3.88,20.85-1.91,31.28-2.45
			c5.02,0.04,10.04,0.12,15.05,0.05c5.64-0.27,11.47,0.53,16.17-2.6c-11.74-3.59-22.4-8.91-28.92-20.3
			c1.82-15.55,7.29-25.04,25.41-17.1c11.12,4.87-2.44-9.48,8.46-10.61c33.94-3.51,66.78-16.29,101.8-11.77
			c12.03,1.55,25.21-2.21,35.17,8.15c0.1,11.37-12.5,10.77-16.86,17.95c-2.98,4.39-9.61,0.19-12.33,5.3
			c-9.48,8.14-20.66,13.6-31.07,20.25c-19.19,6.72-19,28.54-31.52,40.45c-15.44,3.71-31.1,1.55-46.67,1.65
			c-1.44,0.01-2.45-2.07-4.2-1.03c11.91,11.38-17.06,33.79,8.43,38.51c-5.69-4.71-12.45-11.84-6.57-24.18
			c5.43-11.41,14.48-15.52,25.74-12.91c7.95,1.85,15.73-3.1,23.26,0.94c25.4,12.23,55.54,16.91,71.08,44.83
			c1.17,2.1,3.05,4.45,5.16,5.3c18.71,7.55,24.65,16.19,3.49,28.7c-7.31,4.32,1.49,10.64-1.01,15.81
			c-1.91,9.17-6.17,14.51-16.44,10.06c-7.26-3.14-16.03-3.63-22.02-8.41c-9.07-7.24-17.9-6.74-27.66-3.4
			c-11.37-14.17-10.58-16.74,10.75-29.27c-7.96,0.37-10.32-11.05-17.47-5.37c-5.81,4.61-7.42,12.24-3.51,19.78
			c4.33,8.34,1.47,15.24-4.59,21.33c-6.65,6.69-13.84,6.22-21.51,1.68c-5.21-3.09-10.92-4.9-16.99-2.92
			c-7.22,2.37-13.34,6.57-14.47,14.57c-1.12,7.95,4.73,11.68,11.14,14.26c13.27,5.34,26.33,11.21,38.57,15.71
			c12.92-13.97,7.77-33.32,16.78-48.13c13.02-7.39,24.04-0.22,35.3,4.93c6.36,2.91,13.6,3.32,18.55,10.09
			c2.65,3.63,8.11-9.06,13.57-1.03c10.78,16.44,20.48,33.06,36.46,46.2c10.77,8.85,10.47,27.03,20.18,39.22
			c4.97,6.24-0.52,12.08-9.85,10.02c-8.89-1.97-17.88-3.42-26.83-5.1c-0.36-0.51-0.62-1.15-1.09-1.51c-3.41-2.61,1.17-7.8-3.21-9.87
			c-0.6-0.28-2.36,1.24-2.68,2.32c-1.89,6.46,5.53,5.24,7.35,8.7c2.08,12.19-15.37,27.29-29.76,23.18
			c-10.29-2.94-12.2,2.93-18.95,6.82c-22.17,12.76-21.32,41.88-43.65,53.6c-12.56,6.59-9.95,19.64,1.47,23.72
			c12.87,4.6,16.4,13.11,19.49,23.8c-7.07,1.64-13.63-2.46-20.62-1.8c-3.7-0.78-5.96-3.9-9.09-5.61
			c-5.6-3.58-11.26-7.61-12.92-14.22c-2.38-9.46-14.47-12.25-16.19-10.05c-12,15.29-39.44-10.39-45.58,17.99
			c-1.7,7.85-4.2,15.32-0.37,22.93c6.41,12.73,16.14,14.06,24.41,3.42c6.16-7.94,13.48-6.68,18.97-4.26
			c6.79,2.99,3.23,10.34,0.3,15.34c-4.95,8.45-2.13,11.78,6.8,12.66c8.93,0.88,12,6.06,11.06,14.96
			c-1.86,17.5,7.97,21.88,23.2,19.43c1.14,1.71,1.13,3.43-0.01,5.14c-16.4,6.88-27.56-0.04-37.86-12.79
			c-12.01-14.86-29.73-19.21-47.59-23.69c-19.69-4.94-42.19-6.92-48.01-33.18c-1.04-4.71-3.1-10.33-12.77-4.12
			c-9.04,5.81-13.46-7.87-18.51-14.72c-14.33-19.42-29.12-38.45-45.65-56.12c-10.55-11.28-15.15-25.85-10.73-40.1
			c7.54-24.33-18.3-32.86-21.71-51.51c-29.12,4.54-24.04-28.64-43.16-39.03c-29.74-16.15-41.12-19.9-64.55,5.43
			c-0.87,0.94-2.08,2.22-3.15,2.24c-24.82,0.44-42.59,19.34-65.45,24.89c-3.4,0.83-7.16,1.66-8.7-1.67
			c-2.13-4.57,1.8-7.39,5.26-9.25c11.42-6.13,23-11.93,36.25-18.74c-8.79-5.29-16.41-9.53-23.64-14.35
			c-4.98-3.32-11.57-8.96-9.79-13.78c4.71-12.72,4.63-22.2-8.13-29.79c-2.73-1.62-1.54-6.2,2.44-7.66
			c10.13-3.71,13.8-6.61,3.4-16.43c-5.38-5.07,4.86-10.79,9.87-13.73c24.31-14.24,52.34-19.17,77.82-11.31
			c39.07,12.05,77.47,7.59,116.4,5.77c5.22,3.01,10.7,2.21,16.29,0.73C326.33,300.37,320.01,302.32,315.89,295.65z"/>
		<path class="st76" d="M534.05,672.37c0-1.71,0.01-3.42,0.01-5.14c9.2-6.89,17.77-14.65,29.02-18.51c6.68-2.3,13.63-3.3,18.93,1.02
			c7.64,6.22,15.02,7.29,23.79,3.64c1.59-0.66,4.5-0.62,5.62,0.4c17.56,15.98,46.24,18.48,58.11,37.86
			c10.76,17.56,25.53,21.06,40.79,26.09c8.76,2.89,16.65,6.18,24.62,10.78c14.05,8.1,16.66,17.97,7.17,30.53
			c-7.96,10.54-12.92,21.4-15.43,34.88c-2.84,15.29-6.92,32.51-29.19,33.76c-7.42,0.42-12.62,7.42-15.41,16.06
			c-5.69,17.63-20.02,29.45-31.1,43.62c-15.44,19.75-44.06,26.49-50.97,53.95c-3.36,13.35-8.92,26.21-12.94,39.24
			c-4.05,13.16,9.43,16.32,22.56,18.52c-11.15,10.88-21.73,14.91-34.52,10.18c-13.56-5.02-24.34-12.69-25.95-28.96
			c-3.06-30.92,4.15-60.84,10.83-90.29c5.98-26.39,10.52-52.61,11.89-79.52c0.47-9.23-4.08-13.7-11.93-17.96
			c-20.21-10.99-40.85-54.43-37.72-76.71c0.94-6.71,2.62-13.9,8.27-17.28C543.37,690.81,540.59,682.11,534.05,672.37z"/>
		<path class="st76" d="M597.34,194.97c2.89,0.17,5.78,0.33,8.67,0.5c7-8.84,18.49-10.09,27.18-16.09
			c14.46-3.8,28.9-6.78,44.09-4.28c4.89,0.8,11.72,1.02,15.05-1.7c27.36-22.35,61.06-15.64,91.79-18.58
			c23.27-2.23,50.55-2.65,66.2,23.61c3.84,6.45,10.84,3.06,16.33,0.98c11.56-4.37,21.87-2.84,30.95,5.05
			c1.14,4.19-1.65,5.81-3.99,7.27c-29.2,18.17-34.38,33.19-22.97,66.67c0.66,1.94,1.69,5.32,0.88,5.98
			c-27.25,22.1-23.92,70.68-74.66,75.75c-22.43,2.24-48.64,24.32-60.53,51.33c-8.09,18.38-26.44,22.44-39.56,5.95
			c-15.14-19.02-30.42-37.53-30.46-65.93c-0.02-19.75-10.83-40.03-19.17-59.04c-5.81-13.24-17.15-21.79-33.6-18.3
			c-23.09,4.9-38.54-5.06-48.72-25.17c5.69-21.43,26.43-14.01,39.17-21.12c3.17,1.97,2.89-0.92,2.12-0.9
			C597.95,207.17,593.13,204.16,597.34,194.97z"/>
	</g>
</g>
<g id="Planfinity">
	<g id="Isotipo_00000114035782580161631190000007452208274064412061_">
	</g>
	<g id="Logotipo_00000167362310947526393740000018442782925603511937_">
		<g id="Anotaciones_00000093171995712916195960000010519744951131357334_" class="st0">
		</g>
	</g>
	<g id="Imagotipo_00000174579059702518774350000016930638984013751960_">
	</g>
</g>
<g id="SPECT">
	<g id="Paleta_de_colores_00000000927072412350156920000015527086338446549390_">
	</g>
	<g id="Isotipo_00000131360011782984930350000015245230134454808511_">
	</g>
	<g id="Logotipo_00000147213459897902378120000007808874357290990769_">
		<g id="Anotaciones_copia">
		</g>
	</g>
	<g id="Imagotipo_00000059282080053037687910000007524513146883107228_">
	</g>
</g>
<g id="CyS">
	<g id="Isotipo">
		<g id="Anotaciones_00000057845074695795868430000005765591065450093220_" class="st0">
		</g>
	</g>
	<g id="Logotipo">
		<g id="Anotaciones" class="st0">
		</g>
	</g>
	<g id="Imagotipo">
	</g>
</g>
<g id="Notas">
</g>
</svg>
